<?xml version="1.0" encoding="utf-8"?>
<!-- Generator: Adobe Illustrator 16.0.0, SVG Export Plug-In . SVG Version: 6.00 Build 0)  -->
<!DOCTYPE svg PUBLIC "-//W3C//DTD SVG 1.1//EN" "http://www.w3.org/Graphics/SVG/1.1/DTD/svg11.dtd">
<svg version="1.1" id="Layer_1" xmlns="http://www.w3.org/2000/svg" xmlns:xlink="http://www.w3.org/1999/xlink" x="0px" y="0px"
	 width="120px" height="140px" viewBox="0 0 120 140" enable-background="new 0 0 120 140" xml:space="preserve">
<g>
	<path fill-rule="evenodd" clip-rule="evenodd" fill="#9D8324" d="M114.051,62.406c0.144,0.011,0.287,0.02,0.432,0.028
		c0,2.571,0,5.143,0,7.714c-0.146,0.003-0.29,0.013-0.434,0.027C112.812,67.586,112.809,64.996,114.051,62.406z"/>
	<path fill-rule="evenodd" clip-rule="evenodd" fill="#040000" d="M114.051,62.406c-0.001,2.59-0.002,5.18-0.002,7.77
		c-1.158,13.241-6.478,24.517-16.08,33.711c-11.95,11.442-26.416,16.378-42.678,14.836c-24.2-2.297-43.142-19.382-47.74-42.866
		c-5-25.541,10.046-50.75,35.127-59.482c29.26-10.187,61.015,6.187,69.615,35.92C113.247,55.593,113.86,58.968,114.051,62.406z"/>
	<path fill-rule="evenodd" clip-rule="evenodd" fill="#F3C91E" d="M59.588,26.13c-0.638-0.615-1.101-1.217-0.971-2.256
		c0.259-2.066,0.389-4.155,0.446-6.237c0.034-1.236,0.65-1.525,1.683-1.391c0.913,0.118,2.211-0.521,2.303,1.241
		c0.133,2.563,0.346,5.122,0.536,7.683c0.04,0.538-0.229,0.882-0.585,1.24c-0.332,0.334-0.692,0.723-0.831,1.154
		c-0.569,1.764-0.648,3.505,0.9,4.86c0.952,0.834,2.059,0.918,3.061,0.067c1.54-1.308,2.142-3.28,1.007-4.727
		c-1.978-2.521-1.293-5.118-1.039-7.743c0.332-3.442,0.417-3.5,3.751-2.875c4.017,0.753,7.904,1.952,11.647,3.626
		c1.019,0.456,1.387,0.935,0.339,1.588c-1.087,0.678-1.981,1.593-2.235,2.72c-0.397,1.763-2.182-0.108-2.577,1.195
		c-0.434,1.428,1.653,0.991,1.652,2.458c-0.003,5.734,4.607,8.855,10.058,6.716c1.439-0.565,1.838,1.689,3.072,0.532
		c0.968-0.908-1.486-1.864,0.125-2.806c0.564-0.331,0.94-1.09,1.256-1.726c1.209-2.438,1.187-2.45,3.191-0.46
		c17.297,17.163,19.829,43.014,6.179,63.087c-0.267,0.392-0.555,0.77-0.805,1.114c-0.571-0.034-0.66-0.476-0.897-0.781
		c-0.393-0.504-0.867-1.158-1.55-0.803c-0.573,0.3-0.293,1.012-0.137,1.546c0.421,1.432-0.571,2.217-1.387,3.085
		c-0.663,0.708-1.154,0.089-1.658-0.244c-0.463-0.305-1.1-0.638-0.92-1.272c0.375-1.323,1.61,0.026,2.296-0.685
		c0.068-1.187-0.938-1.714-1.671-2.384c-0.455-0.415-1.058-0.923-1.692-0.548c-0.725,0.43-0.073,0.963,0.11,1.44
		c0.172,0.448-0.007,0.826-0.379,1.021c-0.645,0.336-1.027-0.198-1.445-0.554c-0.522-0.444-0.981-0.987-0.435-1.633
		c0.604-0.712,1.148-1.603,2.282-1.576c0.58,0.014,1.194,0.021,1.339-0.688c0.111-0.546-0.33-0.92-0.75-1.122
		c-0.547-0.265-1.379-0.953-1.736-0.375c-1.67,2.699-4.772,4.317-5.675,7.571l0.039-0.042c-0.466-0.059-1.079-0.337-1.375-0.14
		c-2.263,1.502-4.485,3.065-6.668,4.682c-0.622,0.461-0.747,0.951,0.301,1.292c2.727,0.885,3.735,3.447,4.668,5.705
		c0.758,1.836-1.424,2.063-2.778,2.853c0.238-2.053,0.252-3.876-2.241-4.314c-0.978-0.172-0.315-0.804-0.26-1.294
		c0.229-1.986-1.141-3.403-3.02-2.905c-2.152,0.57-4.24,1.401-6.329,2.191c-0.927,0.351-1.295,0.73-0.164,1.577
		c2.237,1.675,2.165,4.441,2.713,6.856c0.116,0.511-0.449,1.252-1.388,1.366c-2.21,0.27-4.4,0.69-6.77,1.078
		c1.94-3.78,1.404-5.069-2.442-6.388c-0.673-0.23-1.481-0.259-1.639-1.133c-0.037-0.205,0.265-0.594,0.501-0.703
		c0.779-0.36,1.352,0.214,1.981,0.543c0.651,0.341,1.046,1.396,2.025,0.841c0.593-0.336,0.512-0.918,0.322-1.493
		c-0.335-1.014-0.868-1.569-2.086-1.54c-1.402,0.034-2.758-0.745-4.236-0.124c-1.432,0.602-2.574,1.449-2.742,3.037
		c-0.174,1.642,0.889,2.654,2.232,3.385c0.35,0.191,0.724,0.347,1.1,0.481c0.657,0.234,1.46,0.225,1.763,1.034
		c0.14,0.375-0.138,0.645-0.418,0.766c-0.801,0.347-1.567,0.167-2.28-0.297c-0.134-0.086-0.27-0.17-0.4-0.262
		c-0.676-0.478-0.959-2.024-1.861-1.479c-0.998,0.603-0.166,1.868,0.125,3.067c-3.276-0.11-6.382-0.656-9.368-1.656
		c-1.012-0.339-1.61-1.57-1.243-2.758c0.536-1.729,1.012-3.507,1.99-4.964c0.543-0.083,0.75,0.153,0.828,0.476
		c0.205,0.846,0.214,1.86,1.485,1.775c0.797-0.053,1.061-0.642,1.079-1.343c0.026-1.024,0.289-2.257-1.034-2.65
		c-2.301-0.686-4.569-1.436-6.74-2.465c-0.996-0.473-1.534,0.706-2.411,0.669l0.033,0.032c0.194-1.405-0.252-2.273-1.653-2.963
		c-1.782-0.877-3.346-2.188-5.021-3.288c-0.924-0.606-1.439-0.866-1.489,0.784c-0.083,2.743-2.087,4.571-3.974,6.227
		c-0.864,0.758-1.965-0.012-2.653-0.997c0.483-0.354,1-0.684,1.456-1.082c0.389-0.341,0.546-0.829,0.251-1.294
		c-0.301-0.474-0.697-0.128-1.047,0.001c-1.114,0.411-1.89-0.14-2.453-0.983c-0.748-1.121,0.335-1.703,0.961-2.091
		c1.633-1.013,2.482-3.248,4.924-3.057c0.889,0.07,0.663-0.854,0.384-1.243c-0.697-0.972-1.446-1.947-2.351-2.713
		c-0.714-0.605-1.995-2.026-1.905,0.632c0.033,0.986-4.408,4.755-5.386,4.854c-0.995,0.101-1.642-0.409-2.181-1.193
		c-6.423-9.348-9.578-19.647-8.908-31.014C10.5,49.902,16.169,38.607,26.149,29.36c1.393-1.291,2.039-1.333,2.857,0.43
		c0.67,1.442,1.801,2.678,2.413,4.138c0.844,2.015,1.826,1.169,3.122,0.581c1.735-0.787,1.109-1.599,0.455-2.741
		c-1.221-2.133-2.789-4.103-3.662-6.418c0.191-0.106,0.381-0.213,0.572-0.32c2.039,3.379,4.18,6.702,6.071,10.161
		c0.893,1.634,1.647,1.72,3.065,0.724c1.436-1.008,2.994-1.862,4.566-2.647c1.277-0.638,1.551-1.213,0.694-2.523
		c-1.884-2.88-3.549-5.901-5.361-8.83c-0.596-0.963-0.911-1.456,0.554-2.027c4.054-1.581,8.23-2.575,12.511-3.221
		c1.377-0.208,2.28-0.048,2.182,1.763c-0.086,1.587,0.212,3.195,0.319,4.795c0.067,1.011-0.12,1.801-0.734,2.8
		c-1.28,2.086-0.392,4.56-0.234,6.898c1.085-1.515,0.133-3.412,1.064-5.327c1.041,1.899,0.134,3.727,0.833,5.485
		c1.16-1.106,0.356-2.436,0.639-3.542c0.143-0.556-0.592-1.842,0.999-1.349c0.717,0.72,0.301,1.661,0.5,2.484
		C59.215,29.159,60.143,27.649,59.588,26.13z"/>
	<path fill-rule="evenodd" clip-rule="evenodd" fill="#F1C91E" d="M40.708,102.917c0.036,0.819-1.164,1.608-0.216,2.402
		c1.054,0.883,1.843-0.698,2.875-0.49c-0.032,5.719-2.72,7.619-7.25,5.109c-0.055-0.697,0.662-0.802,0.967-1.225
		c0.258-0.358,0.407-0.751,0.222-1.11c-0.287-0.555-0.839-0.419-1.247-0.184c-1.185,0.685-2.161,0.21-3.098-0.483
		c-0.495-0.366-1.21-0.711-0.761-1.516c0.341-0.608,0.569-1.512,1.365-1.552c1.171-0.061,0.727,0.844,0.766,1.536
		c0.057,0.999,0.76,0.581,1.194,0.304c0.838-0.536,1.303-1.411,1.704-2.279c0.141-0.306,0.102-0.839-0.082-1.119
		c-0.314-0.479-0.735-0.091-0.992,0.157c-0.511,0.494-0.958,0.512-1.423-0.012c-0.577-0.649,0.085-1.037,0.38-1.422
		c0.35-0.457,0.643-1.274,1.486-0.792c0.837,0.48,1.852,1.008,1.981,1.988c0.261,1.97,1.129,1.429,2.161,0.718
		C40.74,102.949,40.708,102.917,40.708,102.917z"/>
	<path fill-rule="evenodd" clip-rule="evenodd" fill="#F0C81E" d="M87.446,97.191c2.102-0.164,6.399,2.452,7.136,4.413
		c0.515,1.369-0.426,2.052-1.474,2.683c-0.641-0.155-0.602-0.806-0.838-1.252c-0.248-0.47-0.606-0.786-1.146-0.615
		c-0.479,0.151-0.406,0.621-0.384,1.014c0.073,1.288-0.657,2.099-1.656,2.714c-0.603,0.371-1.282,0.842-1.848-0.051
		c-0.362-0.571-1.23-1.059-0.811-1.822c0.403-0.736,1.064-0.25,1.67-0.011c0.96,0.379,0.906-0.399,0.763-0.916
		c-0.286-1.021-0.889-1.889-1.748-2.522c-0.737-0.543-1.212-0.346-1.12,0.619c0.064,0.681,0.178,1.369-0.751,1.422
		c-0.8,0.044-0.905-0.785-1.289-1.257c-0.618-0.759-0.028-1.208,0.493-1.542c0.594-0.38,1.367-0.973,1.919-0.846
		c3.166,0.73,1.899-0.771,1.122-2.073C87.485,97.149,87.446,97.191,87.446,97.191z"/>
	<path fill-rule="evenodd" clip-rule="evenodd" fill="#EEC61E" d="M80.055,28.708c2.702,1.79,5.33,3.53,8.191,5.425
		c-1.44,0.85-2.62,1.708-3.998,0.548C82.397,33.122,78.988,32.692,80.055,28.708z"/>
	<path fill-rule="evenodd" clip-rule="evenodd" fill="#E9C21E" d="M38.688,24.532c-0.093,0.993-0.649,1.695-1.509,1.601
		c-1.39-0.152-1.968-1.459-2.2-2.563c-0.229-1.086,1.243-1.475,1.813-1.435C38.047,22.226,38.108,23.694,38.688,24.532z"/>
	<path fill-rule="evenodd" clip-rule="evenodd" fill="#E4C01C" d="M84.616,22.373c2.854,1.357,5.428,3.146,7.865,5.143
		c-0.123,0.192-0.246,0.383-0.368,0.575c-2.603-1.713-5.204-3.427-7.807-5.141C84.41,22.758,84.513,22.565,84.616,22.373z"/>
	<path fill-rule="evenodd" clip-rule="evenodd" fill="#2F2910" d="M59.588,26.13c0.869,2.269,0.209,4.529,0.045,6.808
		c-0.816-1.536-0.503-3.16-0.559-4.747C59.761,27.633,59.426,26.82,59.588,26.13z"/>
	<path fill-rule="evenodd" clip-rule="evenodd" fill="#E4BE1D" d="M77.832,110.947c0.045,0.858-0.338,1.322-0.937,1.278
		c-1.262-0.094-1.133-1.307-1.397-2.113c-0.172-0.524,0.349-0.893,0.857-0.814C77.357,109.45,77.677,110.255,77.832,110.947z"/>
	<path fill-rule="evenodd" clip-rule="evenodd" fill="#E1BC1E" d="M75.883,106.576c0.066,0.97-0.351,1.508-0.712,1.42
		c-1.004-0.246-1-1.274-1.188-2.081c-0.108-0.465,0.248-0.778,0.686-0.688C75.585,105.417,75.838,106.157,75.883,106.576z"/>
	<path fill-rule="evenodd" clip-rule="evenodd" fill="#DEBA1D" d="M85.214,26.362c1.679-0.215,2.626,0.88,4.023,2.177
		C87.154,28.548,86.281,27.286,85.214,26.362z"/>
	<path fill-rule="evenodd" clip-rule="evenodd" fill="#E7C21D" d="M91.891,30.326c-0.106,0.616-0.403,0.925-0.969,0.865
		c-0.831-0.088-1.239-0.71-1.384-1.402c-0.125-0.595,0.403-0.766,0.914-0.698C91.218,29.193,91.713,29.629,91.891,30.326z"/>
	<path fill-rule="evenodd" clip-rule="evenodd" fill="#EDC61E" d="M82.578,23.867c0.747,0.259,1.449,0.489,1.563,1.308
		c0.088,0.625-0.393,0.787-0.9,0.737c-0.71-0.07-1.455-0.202-1.493-1.124C81.725,24.248,82.171,24.026,82.578,23.867z"/>
	<path fill-rule="evenodd" clip-rule="evenodd" fill="#040000" d="M87.877,59.577c2.32-2.691,5.81-3.162,8.723-4.75
		c0.885-0.482,1.913-0.345,2.579,0.599c0.646,0.919,0.547,1.83-0.276,2.583c-0.816,0.745-1.853,0.926-2.561,0.04
		c-0.973-1.219-1.958-0.725-2.974-0.32c-1.423,0.567-2.61,1.527-3.878,2.367c-1.899,1.259-0.542,2.8-0.491,4.139
		c0.379,10.087-8.51,17.287-18.231,14.504c-1.693-0.484-2.575-0.139-3.685,1.025c-5.084,5.33-11.119,8.609-18.727,8.217
		c-3.825-0.197-7.455-1.239-10.673-3.274c-2.375-1.503-4.692-2.694-7.797-2.104c4.876-1.742,4.549-7.24,7.765-10.101
		c0.731-0.649,0.141-1.043-0.257-1.539c-3.771-4.7-4.123-9.969-2.177-15.408c2.244-6.272,9.584-8.283,15.832-4.361
		c1.356,0.852,2.138,0.877,3.478,0.016c2.874-1.846,7.012-1.155,9.64,1.65c1.254,1.339,2.08,1.334,3.512,0.392
		c1.96-1.292,4.233-1.946,6.603-1.873c1.276,0.04,1.918-0.446,2.232-1.603c0.639-2.352,2.248-4.717-0.525-6.886
		c-0.73-0.571-0.554-1.667,0.123-2.396c0.726-0.781,1.635-1.036,2.587-0.381c0.783,0.537,1.335,1.327,0.883,2.252
		c-1.318,2.702-0.162,5.915-1.86,8.535c-0.576,0.889,0.336,0.77,0.805,0.937C83.234,53.514,85.101,55.043,87.877,59.577z"/>
	<path fill-rule="evenodd" clip-rule="evenodd" fill="#1D1807" d="M54.882,107.461c-0.274,1.655-1.313,2.689-2.648,3.49
		c-0.367,0.221-0.771,0.254-1.081-0.084c-0.413-0.449,0.007-0.698,0.303-0.928c0.746-0.58,0.982-1.213,0.268-1.979
		c-0.691-0.74-0.482-1.405,0.124-2.082c0.626-0.701,1.396-0.773,2.154-0.407C54.811,105.861,54.96,106.654,54.882,107.461z"/>
	<path fill-rule="evenodd" clip-rule="evenodd" fill="#F3C91E" d="M82.556,74.973c-5.977,5.773-16.819,2.803-19.828-5.432
		c-2.083-5.702,0.323-12.089,5.681-15.08c5.666-3.164,12.676-1.719,16.618,3.424c3.558,4.64,3.271,11.515-0.68,15.705
		c-0.349,0.369-0.594,1.013-1.318,0.83c-0.729-0.154-1.111-1.094-2.096-0.893C81.12,74.454,82.195,74.334,82.556,74.973z"/>
	<path fill-rule="evenodd" clip-rule="evenodd" fill="#FFFFFF" d="M35.51,61.036c0.159-0.97,0.274-2.334,0.616-3.64
		c0.893-3.412,2.767-6.007,6.509-6.487c4.343-0.557,8.108,0.573,10.637,4.451c1.425,2.187,1.859,4.711,2.328,7.222
		c0.189,1.018-0.167,1.468-1.183,1.561c-5.47,0.503-10.39,2.355-14.513,6.069c-0.93,0.837-1.264-0.017-1.67-0.516
		C36.274,67.291,35.682,64.429,35.51,61.036z"/>
	<path fill-rule="evenodd" clip-rule="evenodd" fill="#F2C91E" d="M51.82,86.326c-0.415,0.129-0.487,0.17-0.559,0.171
		c-7.274,0.098-7.379,0.218-9.652-7.262c-0.229-0.755-0.341-1.556-0.42-2.344c-0.628-6.269-0.548-6.547,6.208-9.511
		C45.984,74.316,47.639,80.52,51.82,86.326z"/>
	<path fill-rule="evenodd" clip-rule="evenodd" fill="#F2C91E" d="M58.903,68.894c-0.144,4.458,0.76,8.11,3.708,11.006
		c0.773,0.76,1.065,1.251-0.033,1.995c-3.668,2.483-3.319,3.141-6.318-0.795c-3.362-4.409-3.047-9.454-1.823-14.487
		c0.541-2.223,2.542-1.164,3.863-1.206c1.548-0.048,0.55,1.316,0.673,2.03C59.079,68.053,58.915,68.714,58.903,68.894z"/>
	<path fill-rule="evenodd" clip-rule="evenodd" fill="#FEFFFF" d="M57.814,51.703c1.625,0,2.898,0.391,4.079,1.119
		c2.506,1.547,2.656,2.273,1.048,4.677c-0.934,1.396-1.758,2.881-1.984,4.564c-0.199,1.482-0.897,1.839-2.355,1.885
		c-1.669,0.054-1.426-0.921-1.599-1.919c-0.409-2.354-0.947-4.676-2.092-6.815c-1.139-2.128-0.855-2.75,1.476-3.332
		C56.924,51.749,57.495,51.741,57.814,51.703z"/>
	<path fill-rule="evenodd" clip-rule="evenodd" fill="#E3A4A8" d="M82.556,74.973c-1.278,0.085-2.398-0.142-2.773-1.591
		c-0.114-0.439,0.163-0.778,0.624-0.818c1.386-0.123,2.254,0.523,2.623,1.855C82.871,74.604,82.714,74.788,82.556,74.973z"/>
	<path fill-rule="evenodd" clip-rule="evenodd" fill="#DFBA1C" d="M77.651,40.74c0.581,0.136,1.092,0.447,1.041,1.093
		c-0.049,0.625-0.538,0.96-1.183,0.913c-0.542-0.04-0.929-0.415-0.925-0.913C76.59,41.232,76.972,40.805,77.651,40.74z"/>
	<path fill-rule="evenodd" clip-rule="evenodd" fill="#EBC51E" d="M98.55,56.711c-0.156,0.586-0.554,0.954-1.199,0.821
		c-0.525-0.108-0.771-0.551-0.744-1.083c0.039-0.761,0.565-0.903,1.179-0.804C98.333,55.734,98.598,56.104,98.55,56.711z"/>
	<path fill-rule="evenodd" clip-rule="evenodd" fill="#251F0B" d="M76.627,68.385c0.169-1.898,1.502-2.454,3.019-2.693
		c1.393-0.22,2.564,0.246,3.143,1.606c0.596,1.401,0.727,2.809-0.629,4.477c-0.36-1.927,0.798-3.885-1.051-4.854
		C79.238,65.94,78.023,67.44,76.627,68.385z"/>
	<path fill-rule="evenodd" clip-rule="evenodd" fill="#171407" d="M71.512,66.745c-0.096-1.604,0.706-3.444-1.048-4.494
		c-1.937-1.159-3.065,0.782-4.775,1.832c0.488-2.243,1.857-2.857,3.45-3.083c1.418-0.2,2.466,0.435,3.044,1.778
		C72.813,64.243,72.749,65.579,71.512,66.745z"/>
	<path fill-rule="evenodd" clip-rule="evenodd" fill="#1C1908" d="M70.968,67.949c0.307,3.719,0.69,3.917,3.923,2.098
		c-0.098,1.49-1,1.919-2.107,2.116c-1.053,0.188-1.943-0.133-2.388-1.142C69.946,70.002,69.837,68.97,70.968,67.949z"/>
	<path fill-rule="evenodd" clip-rule="evenodd" fill="#E3A4A7" d="M65.733,65.729c0.058,1.045-0.491,1.15-1.071,1.127
		c-1.036-0.041-1.883-0.491-2.092-1.55c-0.135-0.684,0.496-0.955,1.085-0.906C64.654,64.482,65.407,64.979,65.733,65.729z"/>
</g>
</svg>
