<?xml version="1.0" encoding="utf-8"?>
<!-- Generator: Adobe Illustrator 24.1.2, SVG Export Plug-In . SVG Version: 6.00 Build 0)  -->
<svg version="1.1" id="Layer_1" xmlns="http://www.w3.org/2000/svg" xmlns:xlink="http://www.w3.org/1999/xlink" x="0px" y="0px"
	 viewBox="0 0 120 140" style="enable-background:new 0 0 120 140;" xml:space="preserve">
<style type="text/css">
	.st0{fill-rule:evenodd;clip-rule:evenodd;fill:#9D8324;}
	.st1{fill-rule:evenodd;clip-rule:evenodd;fill:#040000;}
	.st2{fill-rule:evenodd;clip-rule:evenodd;fill:#F3C91E;}
	.st3{fill-rule:evenodd;clip-rule:evenodd;fill:#F1C91E;}
	.st4{fill-rule:evenodd;clip-rule:evenodd;fill:#F0C81E;}
	.st5{fill-rule:evenodd;clip-rule:evenodd;fill:#EEC61E;}
	.st6{fill-rule:evenodd;clip-rule:evenodd;fill:#E9C21E;}
	.st7{fill-rule:evenodd;clip-rule:evenodd;fill:#E4C01C;}
	.st8{fill-rule:evenodd;clip-rule:evenodd;fill:#2F2910;}
	.st9{fill-rule:evenodd;clip-rule:evenodd;fill:#E4BE1D;}
	.st10{fill-rule:evenodd;clip-rule:evenodd;fill:#E1BC1E;}
	.st11{fill-rule:evenodd;clip-rule:evenodd;fill:#DEBA1D;}
	.st12{fill-rule:evenodd;clip-rule:evenodd;fill:#E7C21D;}
	.st13{fill-rule:evenodd;clip-rule:evenodd;fill:#EDC61E;}
	.st14{fill-rule:evenodd;clip-rule:evenodd;fill:#1D1807;}
	.st15{fill-rule:evenodd;clip-rule:evenodd;fill:#FFFFFF;}
	.st16{fill-rule:evenodd;clip-rule:evenodd;fill:#F2C91E;}
	.st17{fill-rule:evenodd;clip-rule:evenodd;fill:#FEFFFF;}
	.st18{fill-rule:evenodd;clip-rule:evenodd;fill:#E3A4A8;}
	.st19{fill-rule:evenodd;clip-rule:evenodd;fill:#DFBA1C;}
	.st20{fill-rule:evenodd;clip-rule:evenodd;fill:#EBC51E;}
	.st21{fill-rule:evenodd;clip-rule:evenodd;fill:#251F0B;}
	.st22{fill-rule:evenodd;clip-rule:evenodd;fill:#171407;}
	.st23{fill-rule:evenodd;clip-rule:evenodd;fill:#1C1908;}
	.st24{fill-rule:evenodd;clip-rule:evenodd;fill:#E3A4A7;}
</style>
<g>
	<path class="st0" d="M99.6,68.2c0.1,0,0.2,0,0.3,0c0,1.9,0,3.8,0,5.7c-0.1,0-0.2,0-0.3,0C98.7,72,98.7,70.1,99.6,68.2z"/>
	<path class="st1" d="M99.6,68.2c0,1.9,0,3.8,0,5.8c-0.9,9.8-4.8,18.1-11.9,24.9c-8.8,8.5-19.5,12.1-31.6,11
		c-17.9-1.7-31.9-14.3-35.3-31.7c-3.7-18.9,7.4-37.6,26-44c21.7-7.5,45.2,4.6,51.5,26.6C99,63.1,99.5,65.6,99.6,68.2z"/>
	<path class="st2" d="M59.3,41.3c-0.5-0.5-0.8-0.9-0.7-1.7c0.2-1.5,0.3-3.1,0.3-4.6c0-0.9,0.5-1.1,1.2-1c0.7,0.1,1.6-0.4,1.7,0.9
		c0.1,1.9,0.3,3.8,0.4,5.7c0,0.4-0.2,0.7-0.4,0.9c-0.2,0.2-0.5,0.5-0.6,0.9c-0.4,1.3-0.5,2.6,0.7,3.6c0.7,0.6,1.5,0.7,2.3,0
		c1.1-1,1.6-2.4,0.7-3.5c-1.5-1.9-1-3.8-0.8-5.7c0.2-2.5,0.3-2.6,2.8-2.1c3,0.6,5.8,1.4,8.6,2.7c0.8,0.3,1,0.7,0.3,1.2
		c-0.8,0.5-1.5,1.2-1.7,2c-0.3,1.3-1.6-0.1-1.9,0.9c-0.3,1.1,1.2,0.7,1.2,1.8c0,4.2,3.4,6.6,7.4,5c1.1-0.4,1.4,1.2,2.3,0.4
		c0.7-0.7-1.1-1.4,0.1-2.1c0.4-0.2,0.7-0.8,0.9-1.3c0.9-1.8,0.9-1.8,2.4-0.3c12.8,12.7,14.7,31.8,4.6,46.7c-0.2,0.3-0.4,0.6-0.6,0.8
		c-0.4,0-0.5-0.4-0.7-0.6c-0.3-0.4-0.6-0.9-1.1-0.6c-0.4,0.2-0.2,0.7-0.1,1.1c0.3,1.1-0.4,1.6-1,2.3c-0.5,0.5-0.9,0.1-1.2-0.2
		c-0.3-0.2-0.8-0.5-0.7-0.9c0.3-1,1.2,0,1.7-0.5c0.1-0.9-0.7-1.3-1.2-1.8c-0.3-0.3-0.8-0.7-1.3-0.4c-0.5,0.3-0.1,0.7,0.1,1.1
		c0.1,0.3,0,0.6-0.3,0.8c-0.5,0.2-0.8-0.1-1.1-0.4c-0.4-0.3-0.7-0.7-0.3-1.2c0.4-0.5,0.8-1.2,1.7-1.2c0.4,0,0.9,0,1-0.5
		c0.1-0.4-0.2-0.7-0.6-0.8c-0.4-0.2-1-0.7-1.3-0.3c-1.2,2-3.5,3.2-4.2,5.6l0,0c-0.3,0-0.8-0.2-1-0.1c-1.7,1.1-3.3,2.3-4.9,3.5
		c-0.5,0.3-0.6,0.7,0.2,1c2,0.7,2.8,2.6,3.5,4.2c0.6,1.4-1.1,1.5-2.1,2.1c0.2-1.5,0.2-2.9-1.7-3.2c-0.7-0.1-0.2-0.6-0.2-1
		c0.2-1.5-0.8-2.5-2.2-2.1c-1.6,0.4-3.1,1-4.7,1.6c-0.7,0.3-1,0.5-0.1,1.2c1.7,1.2,1.6,3.3,2,5.1c0.1,0.4-0.3,0.9-1,1
		c-1.6,0.2-3.3,0.5-5,0.8c1.4-2.8,1-3.8-1.8-4.7c-0.5-0.2-1.1-0.2-1.2-0.8c0-0.2,0.2-0.4,0.4-0.5c0.6-0.3,1,0.2,1.5,0.4
		c0.5,0.3,0.8,1,1.5,0.6c0.4-0.2,0.4-0.7,0.2-1.1c-0.2-0.8-0.6-1.2-1.5-1.1c-1,0-2-0.6-3.1-0.1c-1.1,0.4-1.9,1.1-2,2.2
		c-0.1,1.2,0.7,2,1.7,2.5c0.3,0.1,0.5,0.3,0.8,0.4c0.5,0.2,1.1,0.2,1.3,0.8c0.1,0.3-0.1,0.5-0.3,0.6c-0.6,0.3-1.2,0.1-1.7-0.2
		c-0.1-0.1-0.2-0.1-0.3-0.2c-0.5-0.4-0.7-1.5-1.4-1.1c-0.7,0.4-0.1,1.4,0.1,2.3c-2.4-0.1-4.7-0.5-6.9-1.2c-0.7-0.3-1.2-1.2-0.9-2
		c0.4-1.3,0.7-2.6,1.5-3.7c0.4-0.1,0.6,0.1,0.6,0.4c0.2,0.6,0.2,1.4,1.1,1.3c0.6,0,0.8-0.5,0.8-1c0-0.8,0.2-1.7-0.8-2
		c-1.7-0.5-3.4-1.1-5-1.8c-0.7-0.4-1.1,0.5-1.8,0.5l0,0c0.1-1-0.2-1.7-1.2-2.2c-1.3-0.6-2.5-1.6-3.7-2.4c-0.7-0.4-1.1-0.6-1.1,0.6
		c-0.1,2-1.5,3.4-2.9,4.6c-0.6,0.6-1.5,0-2-0.7c0.4-0.3,0.7-0.5,1.1-0.8c0.3-0.3,0.4-0.6,0.2-1c-0.2-0.4-0.5-0.1-0.8,0
		c-0.8,0.3-1.4-0.1-1.8-0.7c-0.6-0.8,0.2-1.3,0.7-1.5c1.2-0.7,1.8-2.4,3.6-2.3c0.7,0.1,0.5-0.6,0.3-0.9c-0.5-0.7-1.1-1.4-1.7-2
		c-0.5-0.4-1.5-1.5-1.4,0.5c0,0.7-3.3,3.5-4,3.6c-0.7,0.1-1.2-0.3-1.6-0.9c-4.8-6.9-7.1-14.5-6.6-23c0.6-10.1,4.8-18.4,12.2-25.3
		c1-1,1.5-1,2.1,0.3c0.5,1.1,1.3,2,1.8,3.1c0.6,1.5,1.4,0.9,2.3,0.4c1.3-0.6,0.8-1.2,0.3-2c-0.9-1.6-2.1-3-2.7-4.7
		c0.1-0.1,0.3-0.2,0.4-0.2c1.5,2.5,3.1,5,4.5,7.5c0.7,1.2,1.2,1.3,2.3,0.5c1.1-0.7,2.2-1.4,3.4-2c0.9-0.5,1.1-0.9,0.5-1.9
		c-1.4-2.1-2.6-4.4-4-6.5c-0.4-0.7-0.7-1.1,0.4-1.5c3-1.2,6.1-1.9,9.3-2.4c1-0.2,1.7,0,1.6,1.3c-0.1,1.2,0.2,2.4,0.2,3.5
		c0,0.7-0.1,1.3-0.5,2.1c-0.9,1.5-0.3,3.4-0.2,5.1c0.8-1.1,0.1-2.5,0.8-3.9c0.8,1.4,0.1,2.8,0.6,4.1c0.9-0.8,0.3-1.8,0.5-2.6
		c0.1-0.4-0.4-1.4,0.7-1c0.5,0.5,0.2,1.2,0.4,1.8C59,43.5,59.7,42.4,59.3,41.3z"/>
	<path class="st3" d="M45.3,98.1c0,0.6-0.9,1.2-0.2,1.8c0.8,0.7,1.4-0.5,2.1-0.4c0,4.2-2,5.6-5.4,3.8c0-0.5,0.5-0.6,0.7-0.9
		c0.2-0.3,0.3-0.6,0.2-0.8c-0.2-0.4-0.6-0.3-0.9-0.1c-0.9,0.5-1.6,0.2-2.3-0.4c-0.4-0.3-0.9-0.5-0.6-1.1c0.3-0.4,0.4-1.1,1-1.1
		c0.9,0,0.5,0.6,0.6,1.1c0,0.7,0.6,0.4,0.9,0.2c0.6-0.4,1-1,1.3-1.7c0.1-0.2,0.1-0.6-0.1-0.8c-0.2-0.4-0.5-0.1-0.7,0.1
		c-0.4,0.4-0.7,0.4-1.1,0c-0.4-0.5,0.1-0.8,0.3-1.1c0.3-0.3,0.5-0.9,1.1-0.6c0.6,0.4,1.4,0.7,1.5,1.5C43.9,99.1,44.6,98.7,45.3,98.1
		C45.3,98.2,45.3,98.1,45.3,98.1z"/>
	<path class="st4" d="M79.9,93.9c1.6-0.1,4.7,1.8,5.3,3.3c0.4,1-0.3,1.5-1.1,2c-0.5-0.1-0.4-0.6-0.6-0.9c-0.2-0.3-0.4-0.6-0.8-0.5
		c-0.4,0.1-0.3,0.5-0.3,0.8c0.1,1-0.5,1.6-1.2,2c-0.4,0.3-0.9,0.6-1.4,0c-0.3-0.4-0.9-0.8-0.6-1.3c0.3-0.5,0.8-0.2,1.2,0
		c0.7,0.3,0.7-0.3,0.6-0.7c-0.2-0.8-0.7-1.4-1.3-1.9c-0.5-0.4-0.9-0.3-0.8,0.5c0,0.5,0.1,1-0.6,1.1c-0.6,0-0.7-0.6-1-0.9
		c-0.5-0.6,0-0.9,0.4-1.1c0.4-0.3,1-0.7,1.4-0.6C81.4,95.9,80.5,94.8,79.9,93.9C79.9,93.9,79.9,93.9,79.9,93.9z"/>
	<path class="st5" d="M74.4,43.2c2,1.3,3.9,2.6,6.1,4c-1.1,0.6-1.9,1.3-3,0.4C76.2,46.5,73.6,46.2,74.4,43.2z"/>
	<path class="st6" d="M43.8,40.1c-0.1,0.7-0.5,1.3-1.1,1.2c-1-0.1-1.5-1.1-1.6-1.9c-0.2-0.8,0.9-1.1,1.3-1.1
		C43.3,38.4,43.4,39.5,43.8,40.1z"/>
	<path class="st7" d="M77.8,38.5c2.1,1,4,2.3,5.8,3.8c-0.1,0.1-0.2,0.3-0.3,0.4c-1.9-1.3-3.9-2.5-5.8-3.8
		C77.7,38.8,77.7,38.7,77.8,38.5z"/>
	<path class="st8" d="M59.3,41.3c0.6,1.7,0.2,3.4,0,5c-0.6-1.1-0.4-2.3-0.4-3.5C59.4,42.4,59.2,41.8,59.3,41.3z"/>
	<path class="st9" d="M72.8,104.1c0,0.6-0.3,1-0.7,0.9c-0.9-0.1-0.8-1-1-1.6c-0.1-0.4,0.3-0.7,0.6-0.6
		C72.4,103,72.7,103.6,72.8,104.1z"/>
	<path class="st10" d="M71.3,100.8c0,0.7-0.3,1.1-0.5,1.1c-0.7-0.2-0.7-0.9-0.9-1.5c-0.1-0.3,0.2-0.6,0.5-0.5
		C71.1,100,71.3,100.5,71.3,100.8z"/>
	<path class="st11" d="M78.3,41.5c1.2-0.2,1.9,0.7,3,1.6C79.7,43.1,79,42.2,78.3,41.5z"/>
	<path class="st12" d="M83.2,44.4c-0.1,0.5-0.3,0.7-0.7,0.6c-0.6-0.1-0.9-0.5-1-1c-0.1-0.4,0.3-0.6,0.7-0.5
		C82.7,43.6,83.1,43.9,83.2,44.4z"/>
	<path class="st13" d="M76.3,39.6c0.6,0.2,1.1,0.4,1.2,1c0.1,0.5-0.3,0.6-0.7,0.5c-0.5-0.1-1.1-0.1-1.1-0.8
		C75.7,39.9,76,39.7,76.3,39.6z"/>
	<path class="st1" d="M80.2,66.1c1.7-2,4.3-2.3,6.5-3.5c0.7-0.4,1.4-0.3,1.9,0.4c0.5,0.7,0.4,1.4-0.2,1.9c-0.6,0.6-1.4,0.7-1.9,0
		c-0.7-0.9-1.4-0.5-2.2-0.2c-1.1,0.4-1.9,1.1-2.9,1.8c-1.4,0.9-0.4,2.1-0.4,3.1c0.3,7.5-6.3,12.8-13.5,10.7
		c-1.3-0.4-1.9-0.1-2.7,0.8c-3.8,3.9-8.2,6.4-13.9,6.1c-2.8-0.1-5.5-0.9-7.9-2.4c-1.8-1.1-3.5-2-5.8-1.6c3.6-1.3,3.4-5.4,5.7-7.5
		c0.5-0.5,0.1-0.8-0.2-1.1c-2.8-3.5-3.1-7.4-1.6-11.4c1.7-4.6,7.1-6.1,11.7-3.2c1,0.6,1.6,0.6,2.6,0c2.1-1.4,5.2-0.9,7.1,1.2
		c0.9,1,1.5,1,2.6,0.3c1.5-1,3.1-1.4,4.9-1.4c0.9,0,1.4-0.3,1.7-1.2c0.5-1.7,1.7-3.5-0.4-5.1c-0.5-0.4-0.4-1.2,0.1-1.8
		c0.5-0.6,1.2-0.8,1.9-0.3c0.6,0.4,1,1,0.7,1.7c-1,2-0.1,4.4-1.4,6.3c-0.4,0.7,0.2,0.6,0.6,0.7C76.8,61.6,78.2,62.7,80.2,66.1z"/>
	<path class="st14" d="M55.8,101.5c-0.2,1.2-1,2-2,2.6c-0.3,0.2-0.6,0.2-0.8-0.1c-0.3-0.3,0-0.5,0.2-0.7c0.6-0.4,0.7-0.9,0.2-1.5
		c-0.5-0.5-0.4-1,0.1-1.5c0.5-0.5,1-0.6,1.6-0.3C55.8,100.3,55.9,100.9,55.8,101.5z"/>
	<path class="st2" d="M76.3,77.5c-4.4,4.3-12.4,2.1-14.7-4c-1.5-4.2,0.2-8.9,4.2-11.2c4.2-2.3,9.4-1.3,12.3,2.5
		c2.6,3.4,2.4,8.5-0.5,11.6c-0.3,0.3-0.4,0.7-1,0.6c-0.5-0.1-0.8-0.8-1.6-0.7C75.2,77.1,76,77,76.3,77.5z"/>
	<path class="st15" d="M41.5,67.1c0.1-0.7,0.2-1.7,0.5-2.7c0.7-2.5,2-4.4,4.8-4.8c3.2-0.4,6,0.4,7.9,3.3c1.1,1.6,1.4,3.5,1.7,5.3
		c0.1,0.8-0.1,1.1-0.9,1.2c-4,0.4-7.7,1.7-10.7,4.5c-0.7,0.6-0.9,0-1.2-0.4C42,71.8,41.6,69.6,41.5,67.1z"/>
	<path class="st16" d="M53.5,85.9C53.2,86,53.2,86,53.1,86c-5.4,0.1-5.5,0.2-7.1-5.4c-0.2-0.6-0.3-1.2-0.3-1.7
		c-0.5-4.6-0.4-4.8,4.6-7C49.2,77,50.4,81.6,53.5,85.9z"/>
	<path class="st16" d="M58.8,73c-0.1,3.3,0.6,6,2.7,8.1c0.6,0.6,0.8,0.9,0,1.5c-2.7,1.8-2.5,2.3-4.7-0.6c-2.5-3.3-2.3-7-1.3-10.7
		c0.4-1.6,1.9-0.9,2.9-0.9c1.1,0,0.4,1,0.5,1.5C58.9,72.3,58.8,72.8,58.8,73z"/>
	<path class="st17" d="M58,60.2c1.2,0,2.1,0.3,3,0.8c1.9,1.1,2,1.7,0.8,3.5c-0.7,1-1.3,2.1-1.5,3.4c-0.1,1.1-0.7,1.4-1.7,1.4
		c-1.2,0-1.1-0.7-1.2-1.4c-0.3-1.7-0.7-3.5-1.5-5c-0.8-1.6-0.6-2,1.1-2.5C57.3,60.3,57.7,60.3,58,60.2z"/>
	<path class="st18" d="M76.3,77.5c-0.9,0.1-1.8-0.1-2.1-1.2c-0.1-0.3,0.1-0.6,0.5-0.6c1-0.1,1.7,0.4,1.9,1.4
		C76.5,77.2,76.4,77.3,76.3,77.5z"/>
	<path class="st19" d="M72.7,52.1c0.4,0.1,0.8,0.3,0.8,0.8c0,0.5-0.4,0.7-0.9,0.7c-0.4,0-0.7-0.3-0.7-0.7
		C71.9,52.5,72.2,52.2,72.7,52.1z"/>
	<path class="st20" d="M88.1,63.9c-0.1,0.4-0.4,0.7-0.9,0.6c-0.4-0.1-0.6-0.4-0.6-0.8c0-0.6,0.4-0.7,0.9-0.6
		C88,63.2,88.2,63.5,88.1,63.9z"/>
	<path class="st21" d="M71.9,72.6c0.1-1.4,1.1-1.8,2.2-2c1-0.2,1.9,0.2,2.3,1.2c0.4,1,0.5,2.1-0.5,3.3c-0.3-1.4,0.6-2.9-0.8-3.6
		C73.8,70.8,72.9,71.9,71.9,72.6z"/>
	<path class="st22" d="M68.1,71.4c-0.1-1.2,0.5-2.5-0.8-3.3c-1.4-0.9-2.3,0.6-3.5,1.4c0.4-1.7,1.4-2.1,2.6-2.3
		c1-0.1,1.8,0.3,2.3,1.3C69.1,69.5,69,70.5,68.1,71.4z"/>
	<path class="st23" d="M67.7,72.3c0.2,2.8,0.5,2.9,2.9,1.6c-0.1,1.1-0.7,1.4-1.6,1.6c-0.8,0.1-1.4-0.1-1.8-0.8
		C67,73.8,66.9,73,67.7,72.3z"/>
	<path class="st24" d="M63.8,70.6c0,0.8-0.4,0.9-0.8,0.8c-0.8,0-1.4-0.4-1.5-1.1c-0.1-0.5,0.4-0.7,0.8-0.7
		C63,69.7,63.6,70.1,63.8,70.6z"/>
</g>
</svg>
